<svg preserveAspectRatio="none" viewBox="0 0 186 424" fill="none" xmlns="http://www.w3.org/2000/svg">
<path d="M180.734 395.961C183.476 393.003 185 389.118 185 385.084L185 17C185 8.16345 177.837 1 169 1H17C8.16345 1 1 8.16345 1 17L1 407C1 415.837 8.16345 423 17 423H148.686C153.14 423 157.392 421.143 160.42 417.877L180.734 395.961Z" fill="none" fill-opacity="0.05"/>
<path d="M181.101 396.301C183.929 393.25 185.5 389.244 185.5 385.084L185.5 17C185.5 7.8873 178.113 0.5 169 0.5H17C7.88731 0.5 0.5 7.8873 0.5 17L0.5 407C0.5 416.113 7.88731 423.5 17 423.5H148.686C153.279 423.5 157.664 421.585 160.787 418.217L181.101 396.301Z" stroke="url(#paint0_linear_3752_161)" stroke-opacity="0.7"/>
<defs>
<linearGradient id="paint0_linear_3752_161" x1="164.76" y1="383.276" x2="-120.342" y2="148.105" gradientUnits="userSpaceOnUse">
<stop stop-color="#15BFFD"/>
<stop offset="1" stop-color="#9C37FD"/>
</linearGradient>
</defs>
</svg>
